<svg width="24" height="24" viewBox="0 0 24 24" fill="none" xmlns="http://www.w3.org/2000/svg">
<path d="M21.78 11.88L19.78 9.38C19.6869 9.26215 19.5684 9.16679 19.4334 9.101C19.2984 9.03521 19.1502 9.00069 19 9H13V3C13 2.73478 12.8947 2.48043 12.7071 2.29289C12.5196 2.10536 12.2653 2 12 2C11.7348 2 11.4805 2.10536 11.2929 2.29289C11.1054 2.48043 11 2.73478 11 3V4H5.00004C4.84983 4.00069 4.70171 4.03521 4.56668 4.101C4.43164 4.16679 4.31316 4.26215 4.22004 4.38L2.22004 6.88C2.08053 7.05655 2.00464 7.27499 2.00464 7.5C2.00464 7.72501 2.08053 7.94345 2.22004 8.12L4.22004 10.62C4.31316 10.7379 4.43164 10.8332 4.56668 10.899C4.70171 10.9648 4.84983 10.9993 5.00004 11H11V20H9.00004C8.73482 20 8.48047 20.1054 8.29293 20.2929C8.10539 20.4804 8.00004 20.7348 8.00004 21C8.00004 21.2652 8.10539 21.5196 8.29293 21.7071C8.48047 21.8946 8.73482 22 9.00004 22H15C15.2653 22 15.5196 21.8946 15.7071 21.7071C15.8947 21.5196 16 21.2652 16 21C16 20.7348 15.8947 20.4804 15.7071 20.2929C15.5196 20.1054 15.2653 20 15 20H13V16H19C19.1502 15.9993 19.2984 15.9648 19.4334 15.899C19.5684 15.8332 19.6869 15.7379 19.78 15.62L21.78 13.12C21.9195 12.9435 21.9954 12.725 21.9954 12.5C21.9954 12.275 21.9195 12.0565 21.78 11.88ZM11 9H5.48004L4.28004 7.5L5.48004 6H11V9ZM18.52 14H13V11H18.52L19.72 12.5L18.52 14Z" fill="black"/>
</svg>
