<svg width="24" height="24" viewBox="0 0 24 24" fill="none" xmlns="http://www.w3.org/2000/svg">
<path d="M8.51009 12.4801C8.31231 12.4801 8.11897 12.5387 7.95452 12.6486C7.79007 12.7585 7.6619 12.9147 7.58621 13.0974C7.51052 13.2801 7.49072 13.4812 7.5293 13.6752C7.56789 13.8691 7.66313 14.0473 7.80298 14.1872C7.94283 14.327 8.12102 14.4223 8.315 14.4609C8.50898 14.4994 8.71005 14.4796 8.89277 14.4039C9.0755 14.3283 9.23168 14.2001 9.34156 14.0356C9.45144 13.8712 9.51009 13.6778 9.51009 13.4801C9.51009 13.2149 9.40473 12.9605 9.2172 12.773C9.02966 12.5854 8.77531 12.4801 8.51009 12.4801ZM8.51009 8.00007C8.31231 8.00007 8.11897 8.05872 7.95452 8.1686C7.79007 8.27848 7.6619 8.43466 7.58621 8.61738C7.51052 8.80011 7.49072 9.00118 7.5293 9.19516C7.56789 9.38914 7.66313 9.56732 7.80298 9.70717C7.94283 9.84703 8.12102 9.94227 8.315 9.98085C8.50898 10.0194 8.71005 9.99964 8.89277 9.92395C9.0755 9.84826 9.23168 9.72009 9.34156 9.55564C9.45144 9.39119 9.51009 9.19785 9.51009 9.00007C9.51009 8.73485 9.40473 8.4805 9.2172 8.29296C9.02966 8.10543 8.77531 8.00007 8.51009 8.00007ZM12.0001 10.0001C11.7349 10.0001 11.4805 10.1054 11.293 10.293C11.1054 10.4805 11.0001 10.7349 11.0001 11.0001V12.0001C11.0001 12.2653 11.1054 12.5196 11.293 12.7072C11.4805 12.8947 11.7349 13.0001 12.0001 13.0001C12.2653 13.0001 12.5197 12.8947 12.7072 12.7072C12.8947 12.5196 13.0001 12.2653 13.0001 12.0001V11.0001C13.0001 10.7349 12.8947 10.4805 12.7072 10.293C12.5197 10.1054 12.2653 10.0001 12.0001 10.0001ZM20.5001 8.57007C20.1551 8.37158 19.7741 8.24372 19.3792 8.19393C18.9844 8.14414 18.5835 8.17342 18.2001 8.28007C17.801 8.38696 17.4294 8.57789 17.1101 8.84007L5.51009 2.13007C5.35807 2.0423 5.18563 1.99609 5.01009 1.99609C4.83455 1.99609 4.66211 2.0423 4.51009 2.13007C4.35562 2.21689 4.227 2.34321 4.13739 2.49607C4.04778 2.64894 4.00039 2.82287 4.00009 3.00007V16.1701C3.40994 16.3691 2.89826 16.7505 2.53881 17.2591C2.17936 17.7677 1.99072 18.3773 2.00009 19.0001C1.99981 19.782 2.30488 20.5332 2.8503 21.0936C3.39572 21.654 4.13839 21.9792 4.92009 22.0001H5.50009C8.77683 21.9924 11.9932 21.1178 14.8226 19.4651C17.652 17.8124 19.9938 15.4404 21.6101 12.5901C21.9834 11.9081 22.0773 11.1078 21.8721 10.3579C21.6669 9.60795 21.1786 8.96699 20.5101 8.57007H20.5001ZM6.00009 4.73007L15.8901 10.4401C14.7929 12.0773 13.3261 13.4335 11.6081 14.3994C9.89008 15.3652 7.96906 15.9135 6.00009 16.0001V4.73007ZM19.8701 11.6101C18.3855 14.2257 16.2175 16.3883 13.5981 17.8663C10.9787 19.3442 8.00657 20.0818 5.00009 20.0001C4.73487 20.0001 4.48052 19.8947 4.29298 19.7072C4.10545 19.5196 4.00009 19.2653 4.00009 19.0001C3.99931 18.8661 4.02546 18.7333 4.07699 18.6096C4.12853 18.4859 4.2044 18.3739 4.30009 18.2801C4.48796 18.099 4.73916 17.9985 5.00009 18.0001H5.51009C8.07781 17.999 10.5992 17.3162 12.8165 16.0213C15.0338 14.7264 16.8675 12.8659 18.1301 10.6301C18.1908 10.5204 18.2737 10.4246 18.3736 10.3488C18.4735 10.273 18.5881 10.219 18.7101 10.1901C18.9622 10.1209 19.2315 10.1532 19.4601 10.2801C19.6895 10.4034 19.8618 10.6114 19.9402 10.8598C20.0187 11.1082 19.9971 11.3773 19.8801 11.6101H19.8701Z" fill="black"/>
</svg>
