<svg width="24" height="24" viewBox="0 0 24 24" fill="none" xmlns="http://www.w3.org/2000/svg">
<path d="M16.5 5.00044C15.6195 4.99974 14.7554 5.23823 14 5.69044C13.4523 4.43322 12.4904 3.40158 11.2745 2.76729C10.0587 2.13301 8.66226 1.93436 7.31776 2.20442C5.97327 2.47449 4.76186 3.19698 3.88526 4.25157C3.00866 5.30617 2.51977 6.62923 2.5 8.00044V12.0004C2.50144 13.4173 3.00425 14.788 3.91939 15.8697C4.83452 16.9514 6.10294 17.6743 7.5 17.9104V21.0004C7.5 21.2657 7.60536 21.52 7.79289 21.7075C7.98043 21.8951 8.23478 22.0004 8.5 22.0004C8.76522 22.0004 9.01957 21.8951 9.20711 21.7075C9.39464 21.52 9.5 21.2657 9.5 21.0004V17.9104C10.5187 17.7337 11.4755 17.3 12.28 16.6504C12.637 17.2234 13.1064 17.7182 13.6598 18.1049C14.2132 18.4916 14.8392 18.7622 15.5 18.9004V21.0004C15.5 21.2657 15.6054 21.52 15.7929 21.7075C15.9804 21.8951 16.2348 22.0004 16.5 22.0004C16.7652 22.0004 17.0196 21.8951 17.2071 21.7075C17.3946 21.52 17.5 21.2657 17.5 21.0004V18.9004C18.6294 18.6699 19.6444 18.0563 20.3733 17.1633C21.1022 16.2704 21.5002 15.1531 21.5 14.0004V10.0004C21.5 8.67435 20.9732 7.40259 20.0355 6.4649C19.0979 5.52722 17.8261 5.00044 16.5 5.00044ZM11.5 10.0004V14.0004C11.5096 14.1914 11.5296 14.3817 11.56 14.5704C11.0252 15.2074 10.3051 15.6618 9.5 15.8704V13.0004C9.5 12.7352 9.39464 12.4809 9.20711 12.2933C9.01957 12.1058 8.76522 12.0004 8.5 12.0004C8.23478 12.0004 7.98043 12.1058 7.79289 12.2933C7.60536 12.4809 7.5 12.7352 7.5 13.0004V15.8604C6.64353 15.6393 5.88451 15.1405 5.34169 14.4421C4.79887 13.7437 4.50287 12.885 4.5 12.0004V8.00044C4.49739 7.208 4.73022 6.43265 5.16894 5.77274C5.60766 5.11282 6.2325 4.59809 6.9642 4.29384C7.69591 3.98959 8.5015 3.90953 9.27877 4.06382C10.056 4.2181 10.77 4.59978 11.33 5.16044C11.8714 5.70907 12.2399 6.40444 12.39 7.16044C11.8119 7.99482 11.5015 8.98538 11.5 10.0004ZM19.5 14.0004C19.4983 14.6194 19.3051 15.2226 18.9471 15.7275C18.589 16.2324 18.0835 16.6141 17.5 16.8204V13.0004C17.5 12.7352 17.3946 12.4809 17.2071 12.2933C17.0196 12.1058 16.7652 12.0004 16.5 12.0004C16.2348 12.0004 15.9804 12.1058 15.7929 12.2933C15.6054 12.4809 15.5 12.7352 15.5 13.0004V16.8204C14.9165 16.6141 14.411 16.2324 14.0529 15.7275C13.6949 15.2226 13.5017 14.6194 13.5 14.0004V10.0004C13.5 9.20479 13.8161 8.44173 14.3787 7.87912C14.9413 7.31651 15.7044 7.00044 16.5 7.00044C17.2956 7.00044 18.0587 7.31651 18.6213 7.87912C19.1839 8.44173 19.5 9.20479 19.5 10.0004V14.0004Z" fill="black"/>
</svg>
