<svg width="24" height="24" viewBox="0 0 24 24" fill="none" xmlns="http://www.w3.org/2000/svg">
<path d="M18 20H13V14.94C15.1993 14.6941 17.231 13.6465 18.7068 11.9973C20.1825 10.3482 20.9989 8.21306 21 6C21.005 4.83662 20.7772 3.68399 20.33 2.61C20.2783 2.48998 20.2035 2.38127 20.11 2.29L20 2.21C19.9361 2.15742 19.8655 2.1137 19.79 2.08C19.7014 2.03895 19.6069 2.01196 19.51 2H19.41H4.58997H4.49997C4.40074 2.00455 4.30286 2.0248 4.20997 2.06C4.13726 2.10245 4.06713 2.1492 3.99997 2.2L3.87997 2.29C3.78643 2.38127 3.71169 2.48998 3.65997 2.61C3.21616 3.6847 2.99176 4.8373 2.99997 6C3.00102 8.21306 3.81743 10.3482 5.29319 11.9973C6.76896 13.6465 8.80062 14.6941 11 14.94V20H5.99997C5.73476 20 5.4804 20.1054 5.29287 20.2929C5.10533 20.4804 4.99997 20.7348 4.99997 21C4.99997 21.2652 5.10533 21.5196 5.29287 21.7071C5.4804 21.8946 5.73476 22 5.99997 22H18C18.2652 22 18.5195 21.8946 18.7071 21.7071C18.8946 21.5196 19 21.2652 19 21C19 20.7348 18.8946 20.4804 18.7071 20.2929C18.5195 20.1054 18.2652 20 18 20ZM4.99997 6C4.9981 5.32272 5.09581 4.64885 5.28997 4H18.71C18.9041 4.64885 19.0018 5.32272 19 6C19 7.85652 18.2625 9.63699 16.9497 10.9497C15.637 12.2625 13.8565 13 12 13C10.1435 13 8.36298 12.2625 7.05023 10.9497C5.73747 9.63699 4.99997 7.85652 4.99997 6Z" fill="black"/>
</svg>
